<?xml version="1.0" standalone="no"?>
<!DOCTYPE svg PUBLIC "-//W3C//DTD SVG 20010904//EN"
 "http://www.w3.org/TR/2001/REC-SVG-20010904/DTD/svg10.dtd">
<svg version="1.0" xmlns="http://www.w3.org/2000/svg"
 width="130.000000pt" height="130.000000pt" viewBox="0 0 130.000000 130.000000"
 preserveAspectRatio="xMidYMid meet">
<metadata>
Created by potrace 1.11, written by Peter Selinger 2001-2013
</metadata>
<g transform="translate(0.000000,130.000000) scale(0.100000,-0.100000)"
fill="#000000" stroke="none">
<path d="M299 1133 c-67 -17 -96 -34 -157 -88 -58 -53 -116 -158 -131 -240
-12 -66 -6 -173 14 -243 42 -145 160 -300 275 -361 66 -36 93 -37 37 -2 -19
12 -41 29 -48 38 -8 10 2 5 21 -9 44 -33 139 -78 165 -78 12 0 -3 14 -40 35
-33 18 -76 48 -95 64 -30 26 -26 25 25 -8 33 -22 85 -49 115 -60 30 -11 47
-15 36 -8 -121 79 -157 106 -176 132 -14 19 -13 19 10 -1 34 -28 121 -80 148
-88 59 -17 63 -14 17 10 -47 25 -175 120 -175 130 0 3 15 -6 33 -20 57 -43
135 -85 188 -100 29 -9 54 -15 55 -13 2 1 -34 21 -79 45 -45 23 -104 63 -132
88 l-50 46 45 -34 c56 -43 142 -85 211 -103 61 -16 78 -13 25 5 -80 26 -192
97 -241 152 l-30 33 30 -26 c40 -36 160 -111 210 -132 59 -25 153 -44 207 -41
119 5 203 72 222 174 6 33 5 33 -12 -9 -57 -135 -188 -162 -379 -80 -132 56
-305 204 -375 320 -97 161 -107 344 -21 419 32 28 84 50 118 50 14 0 25 4 25
9 0 12 -27 10 -91 -6z"/>
<path d="M404 1143 c4 -4 19 -8 34 -10 23 -2 24 -1 7 7 -24 11 -51 13 -41 3z"/>
<path d="M350 1094 c-39 -17 -67 -40 -82 -68 -10 -18 -8 -17 19 2 71 51 183
47 295 -9 31 -16 41 -17 66 -6 l30 13 -40 23 c-100 58 -217 76 -288 45z"/>
<path d="M990 1018 c-168 -36 -323 -79 -505 -139 -116 -39 -214 -74 -218 -78
-5 -5 1 -32 13 -60 l22 -51 102 54 c233 125 325 166 526 237 134 47 147 56 60
37z"/>
<path d="M1206 1001 c-3 -4 6 -6 19 -3 14 2 25 6 25 8 0 8 -39 4 -44 -5z"/>
<path d="M1046 963 c-57 -18 -75 -27 -65 -34 8 -5 21 -9 29 -9 14 0 159 57
169 66 13 12 -65 -1 -133 -23z"/>
<path d="M1068 886 c-126 -57 -170 -83 -265 -158 -82 -65 -273 -250 -273 -264
0 -10 99 -69 116 -69 6 0 40 43 75 95 90 136 312 350 443 427 45 26 -4 11 -96
-31z"/>
<path d="M845 886 l-70 -33 46 -8 c41 -6 53 -3 104 26 48 27 55 34 39 40 -32
13 -46 10 -119 -25z"/>
<path d="M663 796 c-39 -22 -82 -48 -94 -57 -23 -16 -23 -16 28 -28 l51 -12
86 57 c47 32 84 59 82 61 -2 2 -13 6 -25 8 -13 2 -30 6 -39 9 -9 2 -49 -15
-89 -38z"/>
<path d="M464 673 c-22 -15 -51 -36 -66 -48 l-26 -22 35 -37 c37 -38 48 -43
58 -26 3 6 37 37 75 70 l70 59 -43 11 c-23 6 -47 13 -53 15 -7 2 -29 -8 -50
-22z"/>
<path d="M954 610 c-20 -8 -21 -10 -6 -68 8 -35 12 -76 8 -95 -7 -38 -52 -91
-85 -102 -37 -11 -22 -24 16 -13 53 14 82 36 102 77 26 49 31 103 17 158 -13
50 -20 56 -52 43z"/>
</g>
</svg>
